<svg id="Calque_1" data-name="Calque 1" xmlns="http://www.w3.org/2000/svg" viewBox="0 0 48 16"><defs><style>.cls-1{fill:#666;}</style></defs><title>icon_</title><path id="icon" class="cls-1" d="M11.4,10.16h-.7l-.3-.3A5.6,5.6,0,0,0,11.9,6a6,6,0,0,0-6-6A6,6,0,0,0,0,5.94a5.93,5.93,0,0,0,5.9,5.94,5.35,5.35,0,0,0,3.8-1.51l.3.3v.7L14.6,16,16,14.59Zm-5.5,0A4.07,4.07,0,0,1,1.8,6,4.07,4.07,0,0,1,5.9,1.91,4.07,4.07,0,0,1,10,6a4.07,4.07,0,0,1-4.1,4.13Z"/><path id="icon-2" data-name="icon" class="cls-1" d="M40,10c-2.7,0-8,1.3-8,4v2H48V14c0-2.7-5.3-4-8-4M40,0a4,4,0,1,0,4,4,4,4,0,0,0-4-4"/><path id="icon-3" data-name="icon" class="cls-1" d="M27.87,5.14,24.65.3a.87.87,0,0,0-.6-.3.72.72,0,0,0-.6.3L20.23,5.14H16.7a.67.67,0,0,0-.7.6V6l1.81,6.85A1.51,1.51,0,0,0,19.22,14h9.66a1.51,1.51,0,0,0,1.41-1.11L32,6.14v-.2a.69.69,0,0,0-.7-.71H27.87Zm-6,0,2.21-3.22,2.21,3.22Zm2.21,5.94a1.51,1.51,0,1,1,1.51-1.51h0a1.62,1.62,0,0,1-1.51,1.51Z"/></svg>