<?xml version="1.0" encoding="utf-8"?>
<!-- Generator: Adobe Illustrator 21.0.0, SVG Export Plug-In . SVG Version: 6.00 Build 0)  -->
<svg version="1.1" id="Calque_1" xmlns="http://www.w3.org/2000/svg" xmlns:xlink="http://www.w3.org/1999/xlink" x="0px" y="0px"
	 viewBox="0 0 48 16" style="enable-background:new 0 0 48 16;" xml:space="preserve">
<style type="text/css">
	.st0{fill:#666666;}
</style>
<path id="icon" class="st0" d="M11.4,10.1h-0.7l-0.3-0.3c1-1.1,1.5-2.4,1.5-3.8C11.9,2.7,9.2,0,5.9,0C2.7,0,0,2.7,0,5.9
	c0,3.3,2.7,5.9,5.9,5.9c1.4,0,2.8-0.5,3.8-1.5l0.3,0.3v0.7l4.6,4.6l1.4-1.4L11.4,10.1z M5.9,10.1c-2.3,0-4.1-1.8-4.1-4.1
	c0-2.3,1.8-4.1,4.1-4.1c2.3,0,4.1,1.8,4.1,4.1C10.1,8.2,8.2,10.1,5.9,10.1C6,10.1,6,10.1,5.9,10.1z"/>
<path id="icon_1_" class="st0" d="M40,10c-2.7,0-8,1.3-8,4v2h16v-2C48,11.3,42.7,10,40,10 M40,0c-2.2,0-4,1.8-4,4s1.8,4,4,4
	s4-1.8,4-4S42.2,0,40,0"/>
<path id="icon_2_" class="st0" d="M27.9,5.1l-3.2-4.8C24.5,0.1,24.3,0,24.1,0c-0.2,0-0.5,0.1-0.6,0.3l-3.2,4.8h-3.5
	c-0.4,0-0.7,0.3-0.7,0.6c0,0,0,0.1,0,0.1v0.2l1.8,6.8c0.2,0.6,0.7,1.1,1.4,1.1h9.6c0.7,0,1.2-0.5,1.4-1.1L32,6.1V5.9
	c0-0.4-0.3-0.7-0.7-0.7c0,0-0.1,0-0.1,0H27.9L27.9,5.1z M21.9,5.1l2.2-3.2l2.2,3.2H21.9L21.9,5.1z M24.1,11c-0.8,0-1.5-0.7-1.5-1.5
	c0-0.8,0.7-1.5,1.5-1.5c0.8,0,1.5,0.7,1.5,1.5c0,0,0,0,0,0C25.5,10.3,24.9,11,24.1,11L24.1,11z"/>
</svg>
