<svg xmlns="http://www.w3.org/2000/svg" width="16" height="14" viewBox="0 0 16 14">
  <metadata><?xpacket begin="﻿" id="W5M0MpCehiHzreSzNTczkc9d"?>
<x:xmpmeta xmlns:x="adobe:ns:meta/" x:xmptk="Adobe XMP Core 5.6-c138 79.159824, 2016/09/14-01:09:01        ">
   <rdf:RDF xmlns:rdf="http://www.w3.org/1999/02/22-rdf-syntax-ns#">
      <rdf:Description rdf:about=""/>
   </rdf:RDF>
</x:xmpmeta>
                                                                                                    
                                                                                                    
                                                                                                    
                                                                                                    
                                                                                                    
                                                                                                    
                                                                                                    
                                                                                                    
                                                                                                    
                                                                                                    
                                                                                                    
                                                                                                    
                                                                                                    
                                                                                                    
                                                                                                    
                                                                                                    
                                                                                                    
                                                                                                    
                                                                                                    
                                                                                                    
                           
<?xpacket end="w"?></metadata>
<defs>
    <style>
      .cls-1 {
        fill: #666;
        fill-rule: evenodd;
      }
    </style>
  </defs>
  <path id="icon" class="cls-1" d="M1105.7,43.133l-3.23-4.835a0.875,0.875,0,0,0-.58-0.294,0.676,0.676,0,0,0-.59.294l-3.23,4.835h-3.53a0.69,0.69,0,0,0-.73.733v0.22l1.83,6.813a1.506,1.506,0,0,0,1.4,1.1h9.55a1.412,1.412,0,0,0,1.39-1.1l1.84-6.813v-0.22a0.7,0.7,0,0,0-.74-0.733h-3.38Zm-6.02,0,2.21-3.224,2.2,3.224h-4.41Zm2.21,5.86a1.465,1.465,0,1,1,1.46-1.465A1.471,1.471,0,0,1,1101.89,48.993Z" transform="translate(-1093.81 -38)"/>
</svg>
